<?xml version="1.0" standalone="no"?>
<!DOCTYPE svg PUBLIC "-//W3C//DTD SVG 20010904//EN"
 "http://www.w3.org/TR/2001/REC-SVG-20010904/DTD/svg10.dtd">
<svg version="1.0" xmlns="http://www.w3.org/2000/svg"
 width="400.000000pt" height="400.000000pt" viewBox="0 0 400.000000 400.000000"
 preserveAspectRatio="xMidYMid meet">

<g transform="translate(0.000000,400.000000) scale(0.100000,-0.100000)"
fill="#000000" stroke="none">
<path d="M153 3923 c-8 -19 15 -1292 27 -1533 16 -322 61 -715 100 -880 23
-97 64 -240 81 -284 10 -27 19 -53 19 -58 0 -6 22 -56 49 -112 205 -422 547
-638 1176 -740 179 -29 245 -37 255 -31 7 4 10 403 10 1204 l0 1199 -22 6
c-13 3 -150 6 -305 6 l-283 0 0 284 c0 250 2 285 16 290 20 8 1858 8 1878 0
14 -5 16 -40 16 -290 l0 -284 -294 0 c-162 0 -301 -3 -310 -6 -14 -6 -16 -123
-16 -1229 l0 -1222 98 -7 c53 -3 350 -9 660 -12 l562 -7 0 1862 0 1861 -1855
0 c-1726 0 -1856 -1 -1862 -17z"/>
</g>
</svg>
